<svg version="1.1" id="Layer_1" xmlns="http://www.w3.org/2000/svg" xmlns:xlink="http://www.w3.org/1999/xlink" x="0px" y="0px"
	 viewBox="0 0 45 14.5" style="enable-background:new 0 0 45 14.5;" xml:space="preserve">
<style type="text/css">
	.st0{enable-background:new    ;}
	.st1{fill:#C8112E;}
</style>
<g class="st0">
	<path class="st1" d="M1.5,12.3c-0.7-0.5-0.9-1.2-0.9-1.9c0-1.2,1.1-2.9,2.7-3.5c0.4-0.1,1.1-0.3,1.5-0.3C5,6.6,5.1,6.7,5,6.8
		c-1.5,1.2-2.4,2.8-2.4,4c0,0.3,0,0.5,0.1,0.6c1-0.4,2.1-1.3,3.8-3.6c2.9-4.2,3.9-5.6,4.4-6.6c0.1-0.3,0.3-0.4,0.5-0.3
		c0.3,0.1,0.4,0.2,0.8,0.5c0.4,0.4,0.3,1.2-0.1,2c-0.5,0.9-1.3,2.2-2.5,3.9c-2.8,4.2-4.8,5.4-6.6,5.4C2.4,12.7,1.9,12.6,1.5,12.3z"
		/>
	<path class="st1" d="M9.8,12c-0.3-0.2-0.5-0.4-0.6-0.6c-0.3-0.6-0.1-1.3,0.9-2.6c0.9-1.2,1.5-2,1.7-2.5C12,6,12.1,6,12.3,6
		c0.4,0.2,0.9,0.3,1.1,0.4c0.4,0.2,0.5,0.7-0.1,1.4c-0.8,1-2,2.7-2.1,3.6c0.8-0.1,1.7-0.7,3.1-2.5l0-0.1c0.1-0.1,0.1-0.2,0.2-0.1
		l0,0c0.1,0.1,0.1,0.2,0,0.3l0,0.1c-0.7,1.1-2.5,3.3-3.7,3.3C10.5,12.4,10.1,12.2,9.8,12z M13.3,4.7c0.4-0.5,0.9-1.3,1.2-1.7
		c0-0.1,0.1-0.1,0.2-0.1c0.4,0.2,0.7,0.4,0.9,0.7c0.1,0.2,0.1,0.4-0.1,0.6c-0.4,0.4-0.7,0.7-0.8,0.8c-0.3,0.2-0.5,0.2-0.8,0.2
		c-0.2,0-0.5-0.1-0.6-0.1C13.2,4.9,13.2,4.8,13.3,4.7z"/>
	<path class="st1" d="M17.9,12.3c-0.2,0-0.5-0.2-0.8-0.5c-0.4-0.4-0.4-0.7-0.2-1.2c0.3-0.7,1.4-2,2.4-3.3c-0.9,0.6-2.6,1.9-4.1,4.3
		c-0.4,0.7-0.7,0.7-1.1,0.6c-0.2-0.1-0.6-0.3-0.7-0.4c-0.2-0.2-0.4-0.5-0.3-0.9c0.1-0.5,0.6-1.4,1.2-2.1c1.8-2.3,2.1-2.8,2.4-2.8
		c0.3,0,0.6,0.4,1.1,0.6c0.3,0.1,0.4,0.3,0.3,0.6c1-0.7,1.5-1,1.8-1c0.2,0,0.4,0.1,0.7,0.2C20.8,6.7,21,6.8,21,7.1
		c0,0.4-0.2,0.9-0.5,1.4c1.2-1,1.6-1.2,1.9-1.2c0.2,0,0.4,0,0.6,0.2c0.3,0.2,0.5,0.4,0.5,0.6c0,0.7-1.1,1.8-1.5,2.7
		c0.8-0.2,1.6-0.8,2.6-2.1l0-0.1c0.1-0.1,0.1-0.2,0.2-0.1l0,0C25,8.8,25,8.9,24.9,9l0,0.1c-0.9,1.6-2.5,2.8-3.5,2.8
		c-0.9,0-1.4-0.9-1.3-1.4c0-0.4,0.2-0.8,0.5-1.2c-0.5,0.4-0.9,1-1.7,2.1C18.3,12.1,18.1,12.3,17.9,12.3z"/>
	<path class="st1" d="M25.6,11.4c-0.3,0.5-0.4,0.9-0.7,0.9c-0.4,0-1.2-0.4-1.2-1.2c0-0.3,0-0.7,1-2.2c1.9-3,3.9-5.9,4.9-7.5
		c0.3-0.4,0.4-0.5,0.6-0.5c0.1,0,0.3,0,0.5,0.1c0.6,0.2,1,0.6,0.2,2.1c-0.3,0.5-1.1,1.9-2.1,3.4c0.2,0,0.5,0,0.7,0
		c0.5,0,0.9,0.2,1.1,0.4c0.3,0.4,0.5,1.2,0.1,2.3c-0.5,1.4-2.1,2.9-4,2.9C26.1,12,25.9,11.8,25.6,11.4z M29.8,7.1
		c-0.5,0.1-1.3,0.4-2.2,1.1c-0.5,0.8-1,1.5-1.4,2.2C28.4,10,29.7,8.1,29.8,7.1z"/>
	<path class="st1" d="M31.4,12c-0.3-0.2-0.5-0.4-0.6-0.6c-0.3-0.6-0.1-1.3,0.9-2.6c0.9-1.2,1.5-2,1.7-2.5C33.5,6,33.6,6,33.8,6
		c0.4,0.2,0.9,0.3,1.1,0.4c0.4,0.2,0.5,0.7-0.1,1.4c-0.8,1-2,2.7-2.1,3.6c0.8-0.1,1.7-0.7,3.1-2.5l0-0.1C36,8.6,36,8.6,36.1,8.7l0,0
		c0.1,0.1,0.1,0.2,0,0.3l0,0.1c-0.7,1.1-2.5,3.3-3.7,3.3C32,12.4,31.6,12.2,31.4,12z M34.8,4.7c0.4-0.5,0.9-1.3,1.2-1.7
		c0-0.1,0.1-0.1,0.2-0.1C36.6,3,37,3.3,37.1,3.5c0.1,0.2,0.1,0.4-0.1,0.6c-0.4,0.4-0.7,0.7-0.8,0.8c-0.3,0.2-0.5,0.2-0.8,0.2
		c-0.2,0-0.5-0.1-0.6-0.1C34.7,4.9,34.7,4.8,34.8,4.7z"/>
	<path class="st1" d="M35.6,11.7c-0.7-0.6-0.8-1.3,0.3-2.9c0.4-0.6,0.8-1.2,1.1-1.7c-0.2,0-0.3,0-0.4-0.2c-0.2-0.2-0.4-0.5-0.4-0.6
		c0-0.1,0-0.1,0.3-0.1c0.4,0,0.8-0.1,1.2-0.2c0.6-0.9,1.1-1.6,1.7-2.4c0.5-0.6,0.7-0.8,0.8-0.8c0.2,0,0.3,0.3,0.6,0.5
		c0.7,0.6,0.5,0.9-0.5,2.5c0.5,0,0.9,0,1.2,0c0.2,0,0.2,0,0.2,0.1c0,0.2-0.1,0.3-0.3,0.4c-0.2,0-0.2,0.1-0.8,0.3l-0.8,0.2
		c-1.8,2.7-2.5,3.8-2.6,4.4c1.2-0.1,2.3-0.7,3.4-2.3l0-0.1c0.1-0.1,0.1-0.2,0.2-0.1l0,0C41,8.8,41,8.9,40.9,9l0,0.1
		c-0.6,0.9-2.6,3.2-4.1,3.2C36.5,12.3,36,12.2,35.6,11.7z"/>
	<path class="st1" d="M39.4,12.6c-0.2-0.2-0.3-0.4-0.4-0.5c-0.1-0.1,0-0.2,0.1-0.3c1.6-0.5,2.4-1.3,2.4-1.8c0-0.6-1-1.1-1-1.9
		c0-0.7,0.5-1.3,1.2-1.7C42.1,6.2,42.6,6,42.9,6c0.4,0,0.8,0.2,1.1,0.7c0.4,0.6,0.4,0.8,0.2,0.9c-1.1,0.4-2.3,1-2.3,1.6
		c0,0.5,1,0.7,1,1.7c0,0.5-0.2,1-1,1.6c-0.4,0.3-1,0.5-1.6,0.5C39.9,13,39.7,12.9,39.4,12.6z"/>
</g>
</svg>
